<svg width="85" height="85" viewBox="0 0 85 85" fill="none" xmlns="http://www.w3.org/2000/svg">
<g clip-path="url(#clip0_4802_33)">
<rect width="85" height="85" rx="17" fill="#040404"/>
<path d="M72.4961 66.7832H59.8008V37.4863C59.8008 35.8262 59.5078 34.3451 58.9219 33.043C58.3685 31.7083 57.6035 30.569 56.627 29.625C55.6504 28.681 54.4948 27.9648 53.1602 27.4766C51.8581 26.9557 50.4421 26.6953 48.9121 26.6953H26.6953V66.7832H14V20.2988C14 19.4199 14.1628 18.6061 14.4883 17.8574C14.8138 17.0762 15.2695 16.4089 15.8555 15.8555C16.4414 15.2695 17.125 14.8138 17.9062 14.4883C18.6875 14.1628 19.5176 14 20.3965 14H49.0098C50.6048 14 52.2812 14.179 54.0391 14.5371C55.8294 14.8952 57.5872 15.4811 59.3125 16.2949C61.0703 17.0762 62.7305 18.0853 64.293 19.3223C65.888 20.5267 67.2878 22.0078 68.4922 23.7656C69.7292 25.4909 70.7057 27.4928 71.4219 29.7715C72.138 32.0501 72.4961 34.6217 72.4961 37.4863V66.7832Z" fill="white"/>
</g>
<defs>
<clipPath id="clip0_4802_33">
<rect width="85" height="85" fill="white"/>
</clipPath>
</defs>
</svg>
