<svg width="421" height="53" viewBox="0 0 421 53" fill="none" xmlns="http://www.w3.org/2000/svg">
<path d="M391.846 52.7832H379.15V17.7734C379.15 16.1133 378.711 14.86 377.832 14.0137C376.953 13.1348 375.651 12.6953 373.926 12.6953H357.422V52.7832H344.727V6.29883C344.727 5.41992 344.889 4.60612 345.215 3.85742C345.54 3.07617 345.996 2.40885 346.582 1.85547C347.168 1.26953 347.852 0.813802 348.633 0.488281C349.414 0.16276 350.244 0 351.123 0H374.023C375.781 0 377.669 0.309245 379.688 0.927734C381.706 1.54622 383.626 2.53906 385.449 3.90625V0H402.637C403.841 0 405.111 0.146484 406.445 0.439453C407.78 0.69987 409.098 1.12305 410.4 1.70898C411.735 2.29492 413.005 3.0599 414.209 4.00391C415.413 4.91536 416.471 6.03841 417.383 7.37305C418.294 8.67513 419.027 10.1888 419.58 11.9141C420.133 13.6393 420.41 15.5924 420.41 17.7734V52.7832H407.715V17.7734C407.715 16.1133 407.292 14.86 406.445 14.0137C405.632 13.1348 404.362 12.6953 402.637 12.6953H391.211C391.634 14.2578 391.846 15.9505 391.846 17.7734V52.7832Z" fill="white"/>
<path d="M332.812 46.3867C332.812 47.2982 332.65 48.1445 332.324 48.9258C331.999 49.707 331.543 50.3906 330.957 50.9766C330.404 51.5299 329.736 51.9694 328.955 52.2949C328.206 52.6204 327.393 52.7832 326.514 52.7832H297.803C296.24 52.7832 294.564 52.6042 292.773 52.2461C291.016 51.888 289.274 51.3184 287.549 50.5371C285.824 49.7233 284.147 48.7142 282.52 47.5098C280.924 46.2728 279.525 44.7917 278.32 43.0664C277.116 41.3086 276.139 39.2904 275.391 37.0117C274.674 34.7331 274.316 32.1615 274.316 29.2969V0H287.012V29.2969C287.012 30.957 287.288 32.4544 287.842 33.7891C288.428 35.0911 289.209 36.2142 290.186 37.1582C291.162 38.1022 292.301 38.8346 293.604 39.3555C294.938 39.8438 296.37 40.0879 297.9 40.0879H320.117V0H332.812V46.3867Z" fill="white"/>
<path d="M263.184 46.3867C263.184 47.2982 263.021 48.1445 262.695 48.9258C262.37 49.707 261.914 50.3906 261.328 50.9766C260.775 51.5299 260.107 51.9694 259.326 52.2949C258.577 52.6204 257.764 52.7832 256.885 52.7832H228.174C226.611 52.7832 224.935 52.6042 223.145 52.2461C221.387 51.888 219.645 51.3184 217.92 50.5371C216.195 49.7233 214.518 48.7142 212.891 47.5098C211.296 46.2728 209.896 44.7917 208.691 43.0664C207.487 41.3086 206.51 39.2904 205.762 37.0117C205.046 34.7331 204.688 32.1615 204.688 29.2969V0H217.383V29.2969C217.383 30.957 217.66 32.4544 218.213 33.7891C218.799 35.0911 219.58 36.2142 220.557 37.1582C221.533 38.1022 222.673 38.8346 223.975 39.3555C225.309 39.8438 226.742 40.0879 228.271 40.0879H250.488V0H263.184V46.3867Z" fill="white"/>
<path d="M200.879 0C199.447 4.45964 197.77 8.85417 195.85 13.1836C193.929 17.513 191.715 21.6471 189.209 25.5859C186.735 29.4922 183.952 33.1217 180.859 36.4746C177.799 39.7949 174.398 42.6758 170.654 45.1172C166.943 47.526 162.891 49.4303 158.496 50.8301C154.134 52.1973 149.398 52.8809 144.287 52.8809C143.408 52.8809 142.578 52.7181 141.797 52.3926C141.016 52.0671 140.332 51.6276 139.746 51.0742C139.16 50.4883 138.704 49.821 138.379 49.0723C138.053 48.291 137.891 47.4609 137.891 46.582V0H150.586V39.6973C153.678 39.6973 156.641 39.0299 159.473 37.6953C162.337 36.3607 165.039 34.6029 167.578 32.4219C170.117 30.2083 172.461 27.7018 174.609 24.9023C176.79 22.1029 178.727 19.2383 180.42 16.3086C182.113 13.3464 183.545 10.4492 184.717 7.61719C185.921 4.78516 186.816 2.24609 187.402 0H200.879Z" fill="white"/>
<path d="M127.051 34.9609C127.051 37.1419 126.774 39.1113 126.221 40.8691C125.667 42.5944 124.935 44.1243 124.023 45.459C123.112 46.7611 122.054 47.8841 120.85 48.8281C119.645 49.7396 118.376 50.4883 117.041 51.0742C115.739 51.6602 114.404 52.0996 113.037 52.3926C111.702 52.653 110.433 52.7832 109.229 52.7832H86.3281C84.5703 52.7832 82.6497 52.474 80.5664 51.8555C78.4831 51.237 76.5462 50.2279 74.7559 48.8281C72.998 47.3958 71.5169 45.5566 70.3125 43.3105C69.1406 41.0319 68.5547 38.2487 68.5547 34.9609V17.7734C68.5547 14.5182 69.1406 11.7676 70.3125 9.52148C71.5169 7.24284 72.998 5.40365 74.7559 4.00391C76.5462 2.57161 78.4831 1.54622 80.5664 0.927734C82.6497 0.309245 84.5703 0 86.3281 0H109.229C112.484 0 115.251 0.585938 117.529 1.75781C119.808 2.92969 121.647 4.41081 123.047 6.20117C124.447 7.95898 125.456 9.87956 126.074 11.9629C126.725 14.0462 127.051 15.9831 127.051 17.7734V34.9609ZM114.355 17.8711C114.355 16.1133 113.916 14.8112 113.037 13.9648C112.158 13.1185 110.889 12.6953 109.229 12.6953H86.4258C84.7331 12.6953 83.4473 13.1348 82.5684 14.0137C81.6895 14.86 81.25 16.1133 81.25 17.7734V34.9609C81.25 36.6211 81.6895 37.8906 82.5684 38.7695C83.4473 39.6484 84.7331 40.0879 86.4258 40.0879H109.229C110.954 40.0879 112.24 39.6484 113.086 38.7695C113.932 37.8906 114.355 36.6211 114.355 34.9609V17.8711Z" fill="white"/>
<path d="M58.4961 52.7832H45.8008V23.4863C45.8008 21.8262 45.5078 20.3451 44.9219 19.043C44.3685 17.7083 43.6035 16.569 42.627 15.625C41.6504 14.681 40.4948 13.9648 39.1602 13.4766C37.8581 12.9557 36.4421 12.6953 34.9121 12.6953H12.6953V52.7832H0V6.29883C0 5.41992 0.16276 4.60612 0.488281 3.85742C0.813802 3.07617 1.26953 2.40885 1.85547 1.85547C2.44141 1.26953 3.125 0.813802 3.90625 0.488281C4.6875 0.16276 5.51758 0 6.39648 0H35.0098C36.6048 0 38.2812 0.179036 40.0391 0.537109C41.8294 0.895182 43.5872 1.48112 45.3125 2.29492C47.0703 3.07617 48.7305 4.08529 50.293 5.32227C51.888 6.52669 53.2878 8.00781 54.4922 9.76562C55.7292 11.4909 56.7057 13.4928 57.4219 15.7715C58.138 18.0501 58.4961 20.6217 58.4961 23.4863V52.7832Z" fill="white"/>
</svg>
